<?xml version="1.0" encoding="UTF-8"?>
<svg id="Layer_2" data-name="Layer 2" xmlns="http://www.w3.org/2000/svg" xmlns:xlink="http://www.w3.org/1999/xlink" viewBox="0 0 114.34 171.82">
  <defs>
    <style>
      .cls-1 {
        fill: #fff;
      }

      .cls-2 {
        fill: url(#linear-gradient);
        isolation: isolate;
      }
    </style>
    <linearGradient id="linear-gradient" x1="116.63" y1="1467.02" x2="8.07" y2="1358.47" gradientTransform="translate(0 -1328.18)" gradientUnits="userSpaceOnUse">
      <stop offset="0" stop-color="#fff" stop-opacity="0"/>
      <stop offset="0" stop-color="#fff" stop-opacity=".03"/>
      <stop offset=".06" stop-color="#fff" stop-opacity=".18"/>
      <stop offset=".15" stop-color="#fff" stop-opacity=".37"/>
      <stop offset=".25" stop-color="#fff" stop-opacity=".54"/>
      <stop offset=".35" stop-color="#fff" stop-opacity=".68"/>
      <stop offset=".46" stop-color="#fff" stop-opacity=".8"/>
      <stop offset=".57" stop-color="#fff" stop-opacity=".89"/>
      <stop offset=".69" stop-color="#fff" stop-opacity=".95"/>
      <stop offset=".82" stop-color="#fff" stop-opacity=".99"/>
      <stop offset="1" stop-color="#fff"/>
    </linearGradient>
  </defs>
  <g id="Layer_1-2" data-name="Layer 1">
    <path class="cls-2" d="M110.96,100.39c-2.26-4.83-5.23-8.91-8.93-12.26-3.7-3.34-7.92-6.11-12.66-8.29-4.75-2.18-9.59-4.12-14.53-5.83s-9.79-3.33-14.53-4.84c-4.75-1.52-8.97-3.29-12.66-5.31-3.7-2.02-6.67-4.45-8.93-7.29s-3.38-6.4-3.38-10.68c0-3.35.6-6.44,1.81-9.28,1.21-2.84,3.02-5.31,5.43-7.41s5.39-3.73,8.93-4.9,7.65-1.75,12.31-1.75c5.06,0,9.41.64,13.07,1.92s6.83,2.68,9.51,4.2c2.68,1.51,4.94,2.9,6.77,4.14,1.83,1.24,3.48,1.87,4.96,1.87,1.4,0,2.57-.33,3.5-.99s1.83-1.7,2.68-3.1l6.65-13.07c-5.83-5.6-12.78-9.92-20.83-12.96C82.08,1.53,73.23,0,63.58,0c-8.56,0-16.19,1.33-22.87,3.97-6.69,2.65-12.31,6.17-16.87,10.56-4.55,4.4-8.01,9.44-10.39,15.12-2.37,5.68-3.56,11.55-3.56,17.62,0,7.63,1.13,13.99,3.39,19.08,2.26,5.1,5.23,9.37,8.93,12.84,3.69,3.46,7.92,6.26,12.66,8.41,4.74,2.14,9.57,4.01,14.47,5.6,4.9,1.6,9.73,3.1,14.47,4.49,4.74,1.4,8.97,3.12,12.66,5.14s6.67,4.53,8.93,7.53,3.38,6.87,3.38,11.61c0,8.48-2.7,15.14-8.11,19.96-5.2,4.64-12.11,6.59-18.93,7.09-7.68.56-16.01-.11-22.87,4.07-2.21,1.35-4.12,3.13-5.87,5.04-1.79,1.94-3.9,4.22-4.79,6.75-.11.32-.2.66-.1.98.15.44.64.66,1.07.83,8.87,3.38,18.36,5.13,27.85,5.13s17.22-1.4,24.34-4.2,13.11-6.63,17.97-11.49,8.58-10.56,11.15-17.1c2.57-6.54,3.85-13.54,3.85-21.01,0-6.92-1.13-12.8-3.39-17.62h.01Z"/>
    <circle class="cls-1" cx="14.77" cy="142.95" r="14.77"/>
  </g>
</svg>