<?xml version="1.0" encoding="UTF-8"?><svg id="Layer_1" xmlns="http://www.w3.org/2000/svg" xmlns:xlink="http://www.w3.org/1999/xlink" viewBox="0 0 824.92 171.82"><defs><style>.cls-1{fill:#fff;}.cls-2{fill:url(#linear-gradient);isolation:isolate;}</style><linearGradient id="linear-gradient" x1="116.63" y1="32.98" x2="8.07" y2="141.53" gradientTransform="translate(0 171.82) scale(1 -1)" gradientUnits="userSpaceOnUse"><stop offset="0" stop-color="#fff" stop-opacity="0"/><stop offset="0" stop-color="#fff" stop-opacity=".03"/><stop offset=".06" stop-color="#fff" stop-opacity=".18"/><stop offset=".15" stop-color="#fff" stop-opacity=".37"/><stop offset=".25" stop-color="#fff" stop-opacity=".54"/><stop offset=".35" stop-color="#fff" stop-opacity=".68"/><stop offset=".46" stop-color="#fff" stop-opacity=".8"/><stop offset=".57" stop-color="#fff" stop-opacity=".89"/><stop offset=".69" stop-color="#fff" stop-opacity=".95"/><stop offset=".82" stop-color="#fff" stop-opacity=".99"/><stop offset="1" stop-color="#fff"/></linearGradient></defs><path class="cls-2" d="M110.96,100.39c-2.26-4.83-5.23-8.91-8.93-12.26-3.7-3.34-7.92-6.11-12.66-8.29-4.75-2.18-9.59-4.12-14.53-5.83s-9.79-3.33-14.53-4.84c-4.75-1.52-8.97-3.29-12.66-5.31-3.7-2.02-6.67-4.45-8.93-7.29s-3.38-6.4-3.38-10.68c0-3.35.6-6.44,1.81-9.28,1.21-2.84,3.02-5.31,5.43-7.41,2.41-2.1,5.39-3.73,8.93-4.9s7.65-1.75,12.31-1.75c5.06,0,9.41.64,13.07,1.92s6.83,2.68,9.51,4.2c2.68,1.51,4.94,2.9,6.77,4.14s3.48,1.87,4.96,1.87c1.4,0,2.57-.33,3.5-.99s1.83-1.7,2.68-3.1l6.65-13.07c-5.83-5.6-12.78-9.92-20.83-12.96C82.08,1.53,73.23,0,63.58,0c-8.56,0-16.19,1.33-22.87,3.97-6.69,2.65-12.31,6.17-16.87,10.56-4.55,4.4-8.01,9.44-10.39,15.12-2.37,5.68-3.56,11.55-3.56,17.62,0,7.63,1.13,13.99,3.39,19.08,2.26,5.1,5.23,9.37,8.93,12.84,3.69,3.46,7.92,6.26,12.66,8.41,4.74,2.14,9.57,4.01,14.47,5.6,4.9,1.6,9.73,3.1,14.47,4.49,4.74,1.4,8.97,3.12,12.66,5.14s6.67,4.53,8.93,7.53,3.38,6.87,3.38,11.61c0,8.48-2.7,15.14-8.11,19.96-5.2,4.64-12.11,6.59-18.93,7.09-7.68.56-16.01-.11-22.87,4.07-2.21,1.35-4.12,3.13-5.87,5.04-1.79,1.94-3.9,4.22-4.79,6.75-.11.32-.2.66-.1.98.15.44.64.66,1.07.83,8.87,3.38,18.36,5.13,27.85,5.13s17.22-1.4,24.34-4.2c7.12-2.8,13.11-6.63,17.97-11.49s8.58-10.56,11.15-17.1c2.57-6.54,3.85-13.54,3.85-21.01,0-6.92-1.13-12.8-3.39-17.62h0Z"/><circle class="cls-1" cx="14.77" cy="142.95" r="14.77"/><path class="cls-1" d="M252.46,35.64l-46.64.22.63,132.99-33.11.16-.63-132.99-46.64.22-.13-26.62,126.39-.6.13,26.62Z"/><path class="cls-1" d="M338.21,141.82c5.35-.03,10.15-.94,14.4-2.76,4.24-1.82,7.83-4.38,10.74-7.7,2.92-3.31,5.14-7.32,6.65-12.02,1.52-4.7,2.26-9.98,2.23-15.85l-.45-95.04,33-.16.45,95.04c.05,9.68-1.47,18.58-4.55,26.7s-7.5,15.12-13.26,21.02c-5.77,5.9-12.78,10.51-21.05,13.85s-17.61,5.03-28.03,5.08-19.79-1.56-28.13-4.82-15.42-7.81-21.24-13.65c-5.82-5.84-10.31-12.8-13.46-20.89-3.16-8.09-4.76-16.97-4.8-26.65l-.45-95.04,33-.16.45,95.04c.03,5.87.82,11.14,2.38,15.83s3.82,8.67,6.77,11.96c2.95,3.29,6.55,5.82,10.82,7.59,4.26,1.78,9.1,2.65,14.53,2.63h0Z"/><path class="cls-1" d="M579.74,87.21c.06,11.66-1.86,22.39-5.73,32.2-3.88,9.81-9.37,18.25-16.49,25.32s-15.69,12.61-25.72,16.62c-10.03,4.01-21.17,6.04-33.41,6.1l-61.38.29-.76-159.61,61.38-.29c12.25-.06,23.4,1.87,33.47,5.78,10.06,3.91,18.69,9.39,25.87,16.43s12.76,15.43,16.73,25.17,5.98,20.4,6.04,31.98h0ZM545.86,87.37c-.04-8.36-1.18-15.87-3.41-22.53s-5.41-12.29-9.54-16.89-9.15-8.13-15.07-10.6c-5.92-2.46-12.61-3.68-20.09-3.64l-28.16.13.51,107.91,28.16-.13c7.48-.04,14.17-1.29,20.06-3.78,5.89-2.48,10.88-6.06,14.96-10.74,4.08-4.68,7.21-10.36,9.38-17.04,2.17-6.68,3.23-14.24,3.19-22.68h0Z"/><path class="cls-1" d="M824.92,86.04c.06,11.66-1.86,22.49-5.73,32.48-3.88,9.99-9.37,18.63-16.49,25.93-7.12,7.29-15.69,13.04-25.71,17.23-10.03,4.19-21.16,6.32-33.41,6.37-12.25.06-23.4-1.96-33.47-6.06-10.07-4.09-18.71-9.76-25.93-16.98-7.22-7.23-12.82-15.82-16.79-25.77s-5.98-20.76-6.04-32.42,1.85-22.47,5.73-32.42c3.87-9.96,9.39-18.58,16.54-25.87,7.15-7.29,15.74-13.04,25.77-17.23s21.16-6.32,33.41-6.37c12.25-.06,23.4,1.96,33.47,6.06s18.69,9.78,25.88,17.04c7.18,7.26,12.76,15.85,16.73,25.77s5.98,20.67,6.04,32.26v-.02ZM791.15,86.2c-.04-8.36-1.18-15.85-3.41-22.48-2.23-6.63-5.43-12.26-9.6-16.89-4.17-4.64-9.21-8.17-15.12-10.6-5.92-2.43-12.61-3.63-20.09-3.59s-14.18,1.3-20.11,3.78c-5.93,2.49-10.95,6.07-15.07,10.74-4.12,4.68-7.27,10.34-9.43,16.98-2.17,6.65-3.23,14.15-3.19,22.51.04,8.43,1.18,15.96,3.41,22.59,2.23,6.63,5.43,12.24,9.59,16.84,4.16,4.6,9.22,8.12,15.18,10.54,5.95,2.43,12.67,3.62,20.15,3.59s14.16-1.29,20.06-3.78c5.89-2.48,10.9-6.05,15.02-10.69s7.27-10.28,9.43-16.93c2.17-6.65,3.23-14.19,3.19-22.62h-.01Z"/><circle class="cls-1" cx="621.8" cy="24.51" r="15.74"/><path class="cls-1" d="M606.06,94.07c-.45-33.24,30.13-32.83,30.13-32.83h0v108.17h-30.13v-75.33h0Z"/></svg>